<svg width="64" height="64" viewBox="0 0 64 64" fill="none" xmlns="http://www.w3.org/2000/svg">
  <rect x="4" y="4" width="56" height="56" rx="18" fill="#4F46E5" />
  <rect x="7" y="7" width="50" height="50" rx="15" fill="#EEF2FF" fill-opacity="0.12" />
  <g transform="translate(10 10) scale(1.8333333333)" stroke="#F8FAFC" stroke-width="1.3090909091" stroke-linecap="round" stroke-linejoin="round">
    <path d="M14 9.536V7a4 4 0 0 1 4-4h1.5a.5.5 0 0 1 .5.5V5a4 4 0 0 1-4 4 4 4 0 0 0-4 4c0 2 1 3 1 5a5 5 0 0 1-1 3" />
    <path d="M4 9a5 5 0 0 1 8 4 5 5 0 0 1-8-4" />
    <path d="M5 21h14" />
  </g>
</svg>
